<svg xmlns="http://www.w3.org/2000/svg" viewBox="0 0 290 115"><defs><style>.cls-1{fill:#0071bc;}.cls-2{fill:#fff;}</style></defs><title>shield-s3nsr-bg</title><g id="Layer_2" data-name="Layer 2"><g id="Layer_1-2" data-name="Layer 1"><rect class="cls-1" width="290" height="115"/><g id="svg_2" data-name="svg 2"><g id="path2"><path class="cls-2" d="M71.57,12.55h.31l1.36.69,1.78.9,3,1.38c1.69.78,2.56,1.18,2.61,1.18s.51.2,1.35.56,1.48.63,1.93.8,1.1.41,2,.71l1.62.57.84.28c.34.12.78.25,1.31.41l2,.56c.82.23,1.62.42,2.39.6l1.5.33,2.15.4,2.27.4,2.25.36L104,23l1.74.33,1.73.34h0l-.07,3.53q-.07,3.52-.36,9.1t-.46,7.81c-.11,1.48-.24,2.75-.39,3.8s-.31,2.06-.51,3-.4,1.89-.62,2.86-.43,1.8-.61,2.53-.39,1.5-.63,2.34-.38,1.34-.43,1.51-.12.39-.22.66-.21.6-.34,1-.33,1-.6,1.7-.5,1.33-.68,1.77-.39,1-.65,1.59-.59,1.35-1,2.22-.65,1.37-.73,1.51l-.88,1.55c-.51.89-.81,1.42-.92,1.59L96.64,75c-.39.67-.65,1.09-.77,1.28s-.31.46-.56.85l-.6.9-.53.75c-.2.29-.4.56-.58.81s-.33.45-.44.61a7.11,7.11,0,0,1-.46.64l-.58.78c-.18.26-.38.53-.6.8s-.4.52-.56.71-.48.57-1,1.13-1.08,1.18-1.76,1.89S87,87.43,86.43,87.94s-.86.82-1,1l-1.18,1-1.14,1-1,.87c-.54.47-.9.77-1.06.9l-.58.47-.91.75c-.39.31-.68.55-.88.69l-.58.41-1,.61c-.49.29-.81.49-1,.59s-.33.21-.52.32-.4.24-.61.38l-.46.31a6.85,6.85,0,0,1-.63.33c-.32.16-.71.34-1.16.54s-.76.34-.94.4l-.26.1-.29-.07a3.1,3.1,0,0,1-.63-.24l-1.14-.57a9.06,9.06,0,0,1-.92-.49c-.08-.07-.28-.2-.61-.42l-.75-.47-1-.59c-.5-.29-.83-.5-1-.62s-.38-.25-.58-.4-.43-.32-.69-.53-.6-.48-1-.84l-1.11-.92c-.31-.26-.77-.65-1.37-1.18l-1.16-1c-.17-.13-.54-.45-1.12-.94l-1-.84-.86-.84-1.06-1.06-1.33-1.42q-1-1.11-1.23-1.35l-.61-.73-.63-.78L51,81.66,50.48,81,50,80.38c-.14-.18-.25-.34-.35-.48l-.4-.56c-.17-.23-.31-.43-.43-.61L48.35,78c-.2-.29-.35-.52-.46-.69l-.5-.78c-.24-.35-.39-.6-.46-.73s-.28-.47-.61-1-.54-.9-.65-1.06-.37-.62-.78-1.36l-1-1.68c-.21-.38-.39-.73-.55-1.06s-.39-.83-.68-1.49-.43-1-.43-1-.15-.38-.44-1.09-.52-1.27-.68-1.68-.38-1-.67-1.86-.58-1.73-.87-2.68-.62-2.09-1-3.45-.6-2.36-.75-3-.35-1.62-.6-2.88-.41-2.09-.46-2.48-.16-1.6-.32-3.62-.26-3.54-.31-4.56-.11-2.12-.17-3.27-.15-3-.27-5.65-.17-4.47-.17-5.56V23.69l.16-.08a3.82,3.82,0,0,1,.86-.2l1.93-.31,3.75-.61,3.6-.62c.73-.12,1.68-.32,2.88-.59s2.22-.52,3.09-.76,1.62-.45,2.25-.66l1.47-.47,1-.33,1.93-.71c1-.36,1.87-.73,2.72-1.1s1.3-.56,1.35-.57a13,13,0,0,0,1.22-.53l2.06-.95,1.81-.85q.9-.42,2.22-1.11l1.33-.69Z"/></g><g id="svg_1" data-name="svg 1"><path class="cls-2" d="M71.57,14.43h.3l1.29.65,1.71.86,2.84,1.31c1.61.74,2.44,1.11,2.49,1.12s.49.19,1.29.53,1.42.6,1.85.76,1,.39,1.87.68l1.55.53.81.27c.32.11.74.24,1.25.39l1.94.53c.79.21,1.55.4,2.29.56l1.43.32,2.06.38c1.16.21,1.88.34,2.17.38l2.16.34,1.73.27,1.66.31,1.66.33h0l-.07,3.34c0,2.23-.16,5.11-.35,8.64s-.33,6-.44,7.41S104.84,47,104.7,48s-.3,1.95-.48,2.85-.39,1.8-.6,2.72-.41,1.71-.58,2.4-.37,1.43-.6,2.22-.37,1.27-.42,1.43a4.6,4.6,0,0,1-.21.63c-.09.26-.2.57-.32.95s-.32.91-.58,1.61-.48,1.27-.65,1.68-.37.92-.62,1.51-.56,1.28-1,2.11-.62,1.3-.69,1.43L97.15,71c-.48.85-.77,1.35-.87,1.51s-.34.55-.72,1.19l-.74,1.21c-.12.17-.29.44-.53.81l-.58.85q-.22.3-.51.72c-.19.27-.38.53-.56.76s-.31.43-.41.58-.25.36-.44.61-.38.49-.56.74-.37.5-.57.76l-.54.68c-.14.18-.45.54-.93,1.06s-1,1.12-1.69,1.8S86.28,85.5,85.79,86s-.82.78-1,.9-.54.45-1.14,1l-1.08.94-1,.83c-.51.44-.85.73-1,.85l-.56.45-.87.71-.84.66-.55.38c-.18.12-.51.31-1,.59s-.77.46-.92.56a5.5,5.5,0,0,1-.5.3l-.58.36-.44.29a6,6,0,0,1-.6.32q-.45.22-1.11.51c-.43.2-.73.32-.9.38l-.25.09L71.22,96a2.82,2.82,0,0,1-.6-.23l-1.09-.54a8.31,8.31,0,0,1-.88-.47c-.07-.06-.27-.19-.59-.39l-.71-.45-.95-.56-1-.58c-.18-.12-.37-.24-.56-.39l-.66-.5-1-.8-1.06-.87-1.32-1.12c-.58-.51-1-.82-1.11-1s-.52-.42-1.07-.89l-.91-.8-.82-.8c-.49-.47-.82-.81-1-1l-1.27-1.34L53.47,82l-.58-.7-.6-.74L51.85,80l-.46-.63L51,78.81l-.33-.46c-.1-.14-.22-.32-.39-.53s-.3-.41-.41-.59l-.46-.67c-.2-.28-.34-.49-.44-.65l-.49-.74c-.22-.34-.37-.57-.44-.7l-.58-1c-.31-.52-.52-.85-.62-1s-.35-.59-.75-1.29l-.9-1.59c-.21-.36-.38-.7-.54-1s-.37-.79-.64-1.42-.42-1-.42-1-.14-.36-.42-1-.49-1.21-.64-1.6-.37-1-.65-1.77-.56-1.64-.83-2.54-.59-2-.93-3.27-.58-2.25-.72-2.88-.33-1.54-.57-2.73-.4-2-.44-2.36-.15-1.52-.3-3.43-.26-3.36-.3-4.33-.1-2-.17-3.1-.14-2.88-.25-5.36-.16-4.25-.16-5.28V25l.15-.07a3.4,3.4,0,0,1,.82-.2L40,24.44c.78-.12,2-.31,3.58-.58L47,23.28c.69-.12,1.61-.31,2.75-.57s2.13-.49,3-.71,1.55-.44,2.15-.63l1.41-.45,1-.31c.31-.11.93-.33,1.85-.68s1.79-.69,2.6-1,1.25-.53,1.3-.54.44-.18,1.17-.51l2-.89,1.74-.81c.57-.27,1.28-.62,2.12-1.06l1.28-.65Z"/></g></g><path class="cls-2" d="M137.67,54.35c0,3.77-.95,6.67-2.85,8.67s-4.66,3-8.25,3a18.15,18.15,0,0,1-9-2.07V56.53q4.53,3,8.32,3a4.18,4.18,0,0,0,3.24-1.19,4.58,4.58,0,0,0,1.09-3.23A5.88,5.88,0,0,0,129,51.38a19.63,19.63,0,0,0-4.28-3.71,19,19,0,0,1-3.94-3.44,12.62,12.62,0,0,1-2.07-3.69,14,14,0,0,1-.73-4.75,11.47,11.47,0,0,1,2.88-8.23,10.18,10.18,0,0,1,7.75-3,16.88,16.88,0,0,1,8.92,2.6l-2.48,6a24,24,0,0,0-2.78-1.39,8.05,8.05,0,0,0-3.11-.6,3.41,3.41,0,0,0-2.8,1.2,5,5,0,0,0-1,3.27,5.69,5.69,0,0,0,1.17,3.57,17.46,17.46,0,0,0,4.1,3.45,17,17,0,0,1,5.51,5.41A12.58,12.58,0,0,1,137.67,54.35Z"/><path class="cls-2" d="M167.59,65.48h-7.51V47.78h-9.92v17.7h-7.51V25.1h7.51v16h9.92v-16h7.51Z"/><path class="cls-2" d="M176.07,65.48V25.1h7.07V65.48Z"/><path class="cls-2" d="M209.88,65.48H191.67V25.1h18.21v6.49H199.19V41.2h9.91v6.52h-9.91V58.91h10.69Z"/><path class="cls-2" d="M215.76,65.48V25.1h7.51V58.91h10.42v6.57Z"/><path class="cls-2" d="M264.18,44.9q0,10-4.07,15.29t-11.73,5.29h-9.89V25.1h10.8a13,13,0,0,1,11,5.2Q264.18,35.52,264.18,44.9Zm-7.71.22q0-13.53-7.45-13.53h-3V58.91h2.44a6.52,6.52,0,0,0,6.07-3.44C255.82,53.17,256.47,49.73,256.47,45.12Z"/></g></g></svg>