<svg xmlns="http://www.w3.org/2000/svg" viewBox="0 0 612 634"><defs><style>.cls-1{fill:#0071bc;}.cls-2{fill:#fff;}</style></defs><title>shield-l1nsr-bg</title><g id="Layer_2" data-name="Layer 2"><g id="Layer_1-2" data-name="Layer 1"><rect class="cls-1" width="612" height="634"/><g id="svg_2" data-name="svg 2"><g id="path2"><path class="cls-2" d="M306.58,90h1.69l7.26,3.68q7.28,3.69,9.61,4.83t15.9,7.43q13.56,6.28,14,6.35t7.2,3q6.75,2.92,10.39,4.32t10.51,3.81l8.7,3q1.81.63,4.54,1.52c1.82.59,4.15,1.31,7,2.16s6.49,1.86,10.9,3.05,8.7,2.24,12.85,3.17,6.84,1.53,8,1.78,5.06,1,11.55,2.16,10.56,1.9,12.2,2.16l12.08,1.9q9.6,1.53,9.73,1.53c.09,0,3.2.59,9.35,1.77s9.23,1.8,9.28,1.85l.06.06-.39,18.92q-.39,18.93-1.94,48.89t-2.47,41.91q-.92,11.94-2.08,20.45t-2.72,16.13q-1.56,7.62-3.38,15.36t-3.24,13.59q-1.42,5.83-3.38,12.57c-1.3,4.49-2.07,7.2-2.33,8.13s-.65,2.12-1.17,3.56-1.13,3.21-1.82,5.33-1.77,5.16-3.24,9.14-2.69,7.16-3.64,9.53-2.12,5.2-3.5,8.51-3.16,7.28-5.33,11.93-3.46,7.37-3.89,8.13-2,3.54-4.74,8.32-4.37,7.62-4.93,8.51-1.9,3.13-4,6.73-3.51,5.88-4.16,6.86-1.64,2.49-3,4.57-2.43,3.68-3.25,4.82-1.77,2.5-2.85,4.07-2.12,3-3.12,4.31-1.77,2.42-2.33,3.31-1.39,2-2.47,3.42-2.12,2.8-3.12,4.2-2.07,2.83-3.24,4.31-2.16,2.75-3,3.81-2.57,3.07-5.25,6-5.84,6.34-9.48,10.15-6.83,7.07-9.6,9.78-4.61,4.43-5.52,5.15-3,2.54-6.36,5.46-5.37,4.7-6.1,5.33l-5.45,4.7c-2.9,2.5-4.81,4.11-5.71,4.83s-1.95,1.56-3.12,2.54l-4.87,4q-3.11,2.53-4.73,3.74c-1.09.81-2.12,1.53-3.12,2.16s-2.81,1.74-5.45,3.3-4.37,2.63-5.19,3.18S329,540.36,328,541s-2.12,1.27-3.25,2-1.95,1.32-2.47,1.65a35.42,35.42,0,0,1-3.37,1.78q-2.6,1.27-6.23,2.92t-5.06,2.16l-1.43.51-1.56-.38a16.74,16.74,0,0,1-3.37-1.27c-1.21-.59-3.25-1.61-6.1-3.05a50.29,50.29,0,0,1-4.94-2.67c-.43-.33-1.53-1.08-3.31-2.22s-3.11-2-4-2.54-2.68-1.61-5.32-3.17-4.46-2.67-5.45-3.3-2-1.36-3.12-2.16-2.31-1.76-3.7-2.86-3.22-2.6-5.51-4.51l-6-5q-2.52-2.1-7.39-6.35t-6.23-5.33c-.91-.72-2.9-2.42-6-5.08s-4.78-4.17-5.12-4.51l-4.61-4.51c-2.73-2.67-4.63-4.57-5.71-5.72s-3.46-3.68-7.14-7.62-5.88-6.35-6.62-7.23l-3.25-3.94c-1.42-1.74-2.55-3.13-3.37-4.19s-1.64-2.16-2.47-3.3-1.68-2.33-2.59-3.56-1.73-2.33-2.47-3.3-1.36-1.84-1.88-2.6-1.23-1.76-2.14-3-1.69-2.33-2.34-3.3-1.51-2.24-2.59-3.81-1.91-2.79-2.47-3.68-1.47-2.29-2.73-4.19-2.07-3.22-2.46-3.94-1.47-2.54-3.25-5.46-2.94-4.83-3.5-5.72-2-3.32-4.22-7.3-3.94-7-5.06-9-2.12-3.94-3-5.72-2.08-4.44-3.63-8-2.34-5.38-2.34-5.46-.78-2-2.34-5.84-2.76-6.82-3.63-9-2.08-5.54-3.63-10-3.12-9.27-4.68-14.35-3.29-11.26-5.19-18.54-3.24-12.7-4-16.26-1.86-8.72-3.25-15.49-2.21-11.22-2.46-13.33-.83-8.6-1.69-19.43-1.43-19-1.69-24.51-.56-11.35-.91-17.53-.82-16.3-1.43-30.35-.9-24-.9-29.84v-8.77l.84-.44a20.74,20.74,0,0,1,4.61-1.08q3.77-.63,10.38-1.65t20.12-3.3l19.34-3.3q5.84-1,15.45-3.18t16.61-4.06q7-1.91,12.07-3.56t7.92-2.54q2.85-.89,5.45-1.78t10.39-3.81q7.78-2.91,14.6-5.9t7.27-3c.3,0,2.49-1,6.55-2.86s7.75-3.55,11-5.08,6.53-3,9.73-4.57,7.18-3.51,11.94-6L304.89,90Z"/></g><g id="svg_1" data-name="svg 1"><path class="cls-2" d="M306.57,100.09h1.62l6.95,3.5q7,3.5,9.19,4.58t15.22,7q13,6,13.41,6t6.89,2.84q6.47,2.76,9.94,4.09t10.06,3.62l8.32,2.89c1.16.4,2.61.89,4.34,1.45s4,1.24,6.71,2.05,6.21,1.76,10.43,2.89,8.32,2.13,12.3,3,6.54,1.45,7.7,1.69,4.84.92,11.05,2,10.1,1.81,11.67,2.05l11.55,1.8q9.19,1.46,9.32,1.45t8.94,1.69c5.88,1.12,8.84,1.71,8.88,1.75l.06.06-.37,17.95q-.37,18-1.86,46.4t-2.36,39.78q-.87,11.33-2,19.4c-.75,5.38-1.61,10.48-2.61,15.31s-2.07,9.68-3.23,14.58-2.19,9.2-3.1,12.89-2,7.68-3.23,11.94-2,6.82-2.24,7.71-.62,2-1.11,3.37-1.08,3.06-1.74,5.06-1.7,4.91-3.11,8.68-2.56,6.79-3.47,9-2,4.94-3.36,8.08-3,6.91-5.09,11.32-3.31,7-3.73,7.72L444,403.74q-3.92,6.81-4.72,8.08t-3.85,6.38q-3,5.13-4,6.51c-.62.93-1.58,2.37-2.86,4.34s-2.32,3.5-3.1,4.58-1.7,2.37-2.74,3.86-2,2.85-3,4.1-1.69,2.29-2.23,3.13-1.33,1.93-2.36,3.25-2,2.65-3,4-2,2.69-3.11,4.1-2.07,2.61-2.85,3.61-2.47,2.92-5,5.73-5.59,6-9.07,9.64-6.54,6.71-9.19,9.28-4.41,4.2-5.28,4.88-2.89,2.41-6.08,5.18-5.14,4.46-5.84,5.06-2.44,2.09-5.22,4.46-4.59,3.9-5.46,4.58-1.86,1.49-3,2.41-2.67,2.19-4.66,3.8-3.5,2.79-4.53,3.56-2,1.44-3,2-2.69,1.65-5.22,3.14-4.18,2.49-5,3-1.67,1.07-2.67,1.63-2,1.2-3.1,1.93-1.86,1.24-2.36,1.56-1.57.89-3.23,1.69-3.64,1.73-6,2.77-3.93,1.73-4.84,2l-1.37.48-1.49-.36a16.43,16.43,0,0,1-3.23-1.2l-5.84-2.9a47.91,47.91,0,0,1-4.72-2.53c-.41-.32-1.46-1-3.16-2.11s-3-1.88-3.85-2.41l-5.09-3q-3.79-2.24-5.22-3.13c-1-.61-2-1.29-3-2s-2.22-1.67-3.54-2.71-3.08-2.47-5.28-4.28l-5.71-4.7c-1.62-1.33-4-3.34-7.08-6s-5.09-4.38-6-5.06-2.77-2.29-5.71-4.82-4.58-4-4.91-4.28L228,482.68q-3.92-3.8-5.46-5.42T215.73,470q-5.28-5.61-6.34-6.87l-3.1-3.74c-1.37-1.64-2.44-3-3.23-4s-1.57-2.05-2.36-3.14-1.61-2.21-2.48-3.37-1.66-2.21-2.36-3.14-1.31-1.74-1.8-2.47-1.18-1.66-2.05-2.83-1.62-2.21-2.24-3.13-1.45-2.13-2.48-3.62-1.82-2.65-2.36-3.49-1.41-2.17-2.61-4-2-3-2.36-3.74-1.41-2.41-3.11-5.18-2.81-4.58-3.35-5.42-1.88-3.16-4-6.93-3.77-6.63-4.85-8.56-2-3.74-2.85-5.42-2-4.22-3.48-7.6-2.24-5.1-2.24-5.18-.74-1.93-2.23-5.54-2.65-6.47-3.48-8.56-2-5.26-3.48-9.52-3-8.8-4.47-13.62-3.14-10.68-5-17.59-3.1-12.06-3.85-15.43-1.78-8.28-3.1-14.7-2.11-10.65-2.36-12.66-.79-8.15-1.62-18.44-1.36-18-1.61-23.26-.54-10.77-.87-16.63-.79-15.47-1.37-28.8-.86-22.78-.86-28.33v-8.31l.8-.42a19.71,19.71,0,0,1,4.41-1q3.6-.6,9.94-1.57t19.25-3.13q12.91-2.18,18.5-3.13t14.78-3q9.19-2,15.9-3.85t11.55-3.38c3.23-1,5.75-1.85,7.57-2.41s3.56-1.12,5.22-1.68,5-1.77,9.93-3.62,9.63-3.72,14-5.6,6.66-2.86,6.95-2.9,2.38-.94,6.27-2.71,7.41-3.37,10.56-4.82,6.25-2.89,9.31-4.34,6.87-3.33,11.43-5.66l6.83-3.5Z"/></g></g></g></g></svg>