<svg xmlns="http://www.w3.org/2000/svg" viewBox="0 0 386.03 462"><defs><style>.cls-1{fill:#fff;}</style></defs><title>shield-l1nsr</title><g id="Layer_2" data-name="Layer 2"><g id="Layer_1-2" data-name="Layer 1"><g id="svg_2" data-name="svg 2"><g id="path2"><path class="cls-1" d="M193.14,0h1.69l7.27,3.68q7.28,3.69,9.6,4.83t15.91,7.43q13.56,6.28,14,6.35t7.21,3q6.75,2.93,10.38,4.32t10.52,3.81l8.69,3.05q1.81.63,4.55,1.52c1.81.59,4.15,1.31,7,2.16s6.49,1.86,10.91,3,8.69,2.24,12.85,3.17,6.83,1.53,8,1.78,5.06,1,11.55,2.16,10.55,1.9,12.2,2.16l12.07,1.9q9.6,1.53,9.74,1.53c.08,0,3.2.59,9.34,1.77s9.24,1.8,9.28,1.85l.07.06-.39,18.92q-.39,18.93-1.95,48.89t-2.47,41.91q-.9,11.94-2.07,20.45t-2.73,16.13q-1.56,7.62-3.37,15.36t-3.25,13.59q-1.43,5.83-3.37,12.57t-2.34,8.13c-.26.93-.65,2.12-1.17,3.56s-1.12,3.21-1.82,5.33-1.77,5.16-3.24,9.14-2.68,7.16-3.63,9.53-2.12,5.2-3.51,8.51-3.16,7.28-5.32,11.93-3.46,7.37-3.89,8.13-2,3.54-4.74,8.32-4.37,7.62-4.94,8.51-1.9,3.13-4,6.73-3.5,5.88-4.15,6.86-1.65,2.49-3,4.57-2.42,3.68-3.24,4.82-1.78,2.5-2.86,4.07-2.12,3-3.11,4.31-1.78,2.42-2.34,3.31-1.38,2-2.47,3.42-2.12,2.8-3.11,4.2-2.08,2.83-3.25,4.31-2.16,2.75-3,3.81-2.58,3.07-5.26,6-5.84,6.34-9.47,10.15-6.84,7.07-9.61,9.78-4.61,4.43-5.52,5.15-3,2.54-6.36,5.46-5.36,4.7-6.1,5.33-2.55,2.2-5.45,4.7-4.8,4.11-5.71,4.83-2,1.56-3.11,2.54l-4.87,4q-3.12,2.53-4.74,3.74T228,442.76q-1.49,1-5.45,3.3t-5.19,3.18q-1.23.83-2.79,1.71c-1,.59-2.12,1.27-3.24,2s-1.95,1.32-2.47,1.65a37.47,37.47,0,0,1-3.38,1.78c-1.73.85-3.8,1.82-6.23,2.92s-4.11,1.82-5.06,2.16l-1.43.51-1.55-.38a16.81,16.81,0,0,1-3.38-1.27q-1.81-.89-6.1-3.05a49.5,49.5,0,0,1-4.93-2.67c-.43-.33-1.54-1.08-3.31-2.22s-3.12-2-4-2.54-2.68-1.61-5.32-3.17-4.45-2.67-5.45-3.3-2-1.36-3.11-2.16-2.32-1.76-3.7-2.86-3.23-2.6-5.52-4.51l-6-4.95q-2.53-2.1-7.4-6.35t-6.23-5.33c-.91-.72-2.9-2.42-6-5.08s-4.78-4.17-5.13-4.51L111,403.14c-2.72-2.67-4.63-4.57-5.71-5.72s-3.46-3.68-7.14-7.62-5.88-6.35-6.62-7.23l-3.24-3.94c-1.43-1.74-2.55-3.13-3.38-4.19s-1.64-2.16-2.46-3.3-1.69-2.33-2.6-3.56l-2.46-3.3c-.74-1-1.37-1.84-1.89-2.6s-1.23-1.76-2.14-3-1.69-2.33-2.33-3.3-1.52-2.24-2.6-3.81-1.9-2.79-2.47-3.68-1.47-2.29-2.72-4.19-2.08-3.22-2.47-3.94-1.47-2.54-3.24-5.46-3-4.83-3.51-5.72-2-3.32-4.22-7.3-3.93-7-5.06-9-2.12-3.94-3-5.72-2.08-4.44-3.64-8-2.34-5.38-2.34-5.46-.77-2-2.33-5.84-2.77-6.82-3.64-9-2.07-5.54-3.63-10-3.12-9.27-4.67-14.35-3.29-11.26-5.2-18.54-3.24-12.7-4-16.26-1.86-8.72-3.24-15.49-2.21-11.22-2.47-13.33-.82-8.6-1.69-19.43-1.43-19-1.68-24.51S2.68,135,2.34,128.77,1.51,112.47.91,98.42,0,74.42,0,68.58V59.81l.84-.44a20.91,20.91,0,0,1,4.61-1.08q3.76-.63,10.39-1.65T36,53.34L55.3,50q5.84-1,15.44-3.18T87.36,42.8q7-1.9,12.07-3.56t7.92-2.54q2.85-.89,5.45-1.78t10.38-3.81q7.78-2.91,14.6-5.9t7.27-3.05q.45-.06,6.56-2.86t11-5.08q4.94-2.28,9.74-4.57t11.94-6L191.46,0Z"/></g><g id="svg_1" data-name="svg 1"><path class="cls-1" d="M193.14,10.09h1.61l7,3.5q6.94,3.5,9.19,4.58t15.21,7q13,6,13.41,6t6.9,2.84q6.45,2.76,9.93,4.09t10.06,3.62l8.32,2.89c1.16.4,2.61.89,4.35,1.45s4,1.24,6.7,2,6.21,1.76,10.44,2.89,8.32,2.13,12.29,3,6.54,1.45,7.7,1.69,4.85.92,11.05,2,10.11,1.81,11.68,2l11.55,1.8q9.19,1.45,9.31,1.45t8.94,1.69c5.88,1.12,8.84,1.71,8.88,1.75l.07.06-.38,17.95q-.36,18-1.86,46.4t-2.36,39.78q-.87,11.33-2,19.4t-2.6,15.31q-1.5,7.23-3.23,14.58t-3.11,12.89q-1.37,5.55-3.23,11.94t-2.23,7.71c-.25.88-.62,2-1.12,3.37S354.5,259,353.84,261s-1.7,4.91-3.1,8.68-2.57,6.79-3.48,9-2,4.94-3.35,8.08-3,6.91-5.1,11.32-3.31,7-3.72,7.72-1.93,3.35-4.53,7.89-4.19,7.23-4.72,8.08-1.82,3-3.85,6.38-3.36,5.59-4,6.51-1.57,2.37-2.85,4.34-2.32,3.5-3.11,4.58-1.7,2.37-2.73,3.86-2,2.85-3,4.1-1.7,2.29-2.24,3.13-1.32,1.93-2.36,3.25-2,2.65-3,4-2,2.69-3.1,4.1-2.07,2.61-2.86,3.61-2.46,2.92-5,5.73-5.59,6-9.06,9.64-6.55,6.71-9.19,9.28-4.41,4.2-5.28,4.88-2.9,2.41-6.09,5.18-5.13,4.46-5.84,5.06-2.44,2.09-5.21,4.46-4.6,3.9-5.47,4.58-1.86,1.49-3,2.41-2.67,2.19-4.65,3.8-3.5,2.79-4.54,3.56-2,1.44-3,2-2.69,1.65-5.21,3.14-4.18,2.49-5,3-1.68,1.07-2.67,1.63-2,1.2-3.11,1.93-1.86,1.24-2.36,1.56a36.1,36.1,0,0,1-3.22,1.69c-1.66.8-3.65,1.73-6,2.77s-3.93,1.73-4.84,2.05l-1.37.48-1.49-.36a16.13,16.13,0,0,1-3.22-1.2c-1.16-.57-3.11-1.53-5.84-2.9a46.61,46.61,0,0,1-4.72-2.53c-.41-.32-1.47-1-3.17-2.11s-3-1.88-3.85-2.41l-5.09-3q-3.78-2.24-5.22-3.13c-.95-.61-1.94-1.29-3-2.05s-2.21-1.67-3.54-2.71-3.08-2.47-5.27-4.28-4.1-3.38-5.72-4.7-4-3.34-7.08-6-5.09-4.38-6-5.06-2.77-2.29-5.71-4.82-4.57-4-4.9-4.28l-4.41-4.28q-3.91-3.8-5.47-5.42L102.29,380Q97,374.42,96,373.16l-3.11-3.74c-1.36-1.64-2.44-3-3.23-4s-1.57-2.05-2.36-3.14-1.61-2.21-2.48-3.37-1.66-2.21-2.36-3.14-1.3-1.74-1.8-2.47-1.18-1.66-2.05-2.83-1.61-2.21-2.23-3.13-1.45-2.13-2.49-3.62-1.82-2.65-2.36-3.49-1.41-2.17-2.61-4-2-3-2.36-3.74-1.4-2.41-3.1-5.18-2.82-4.58-3.35-5.42-1.89-3.16-4-6.93-3.77-6.63-4.84-8.56-2-3.74-2.86-5.42-2-4.22-3.48-7.6-2.23-5.1-2.23-5.18-.75-1.93-2.24-5.54-2.65-6.47-3.48-8.56-2-5.26-3.47-9.52-3-8.8-4.47-13.62-3.15-10.68-5-17.59S20.88,221.36,20.14,218s-1.78-8.28-3.11-14.7-2.11-10.65-2.36-12.66-.78-8.15-1.61-18.44-1.37-18-1.62-23.26-.53-10.77-.86-16.63-.79-15.47-1.37-28.8-.87-22.78-.87-28.33V66.86l.81-.42a19.71,19.71,0,0,1,4.41-1q3.6-.6,9.93-1.57t19.25-3.13l18.51-3.13q5.58-1,14.77-3t15.9-3.85q6.7-1.82,11.55-3.38c3.23-1,5.76-1.85,7.58-2.41s3.56-1.12,5.21-1.68,5-1.77,9.94-3.62,9.62-3.72,14-5.6,6.66-2.86,7-2.9,2.38-.94,6.28-2.71S160.81,25,164,23.59s6.25-2.89,9.32-4.34,6.87-3.33,11.42-5.66l6.83-3.5Z"/></g></g></g></g></svg>