<svg xmlns="http://www.w3.org/2000/svg" viewBox="0 0 533 99"><defs><style>.cls-1{fill:#0071bc;}.cls-2{fill:#fff;}</style></defs><title>shield-s4nsr-bg</title><g id="Layer_2" data-name="Layer 2"><g id="Layer_1-2" data-name="Layer 1"><rect class="cls-1" width="533" height="99"/><g id="svg_2" data-name="svg 2"><g id="path2"><path class="cls-2" d="M51.27,23h.23l1,.48,1.25.63,2.08,1,1.84.83a9.4,9.4,0,0,1,.94.39c.59.25,1,.44,1.36.56l1.38.5,1.13.4.6.2.92.28c.37.11.84.25,1.42.4s1.14.29,1.68.42l1.06.23,1.51.28c.85.16,1.38.25,1.6.28l1.57.25,1.28.2,1.22.23,1.22.25h0l-.05,2.48c0,1.65-.12,3.78-.25,6.4s-.24,4.44-.32,5.48-.17,1.94-.28,2.68-.22,1.44-.35,2.11-.29,1.33-.44,2-.3,1.27-.43,1.78-.27,1.05-.44,1.64l-.31,1.07a4.71,4.71,0,0,1-.15.46c-.07.19-.15.42-.24.7s-.23.67-.42,1.2-.35.93-.48,1.24-.27.68-.46,1.11-.41,1-.69,1.57-.45,1-.51,1.06l-.62,1.09c-.36.62-.57,1-.65,1.11s-.25.41-.52.88-.46.77-.55.9l-.39.6q-.25.4-.42.63l-.38.53c-.14.21-.27.4-.4.57a4.77,4.77,0,0,0-.31.43,4.5,4.5,0,0,1-.32.45c-.14.18-.28.36-.41.55s-.27.37-.42.56-.29.36-.39.5-.34.4-.69.79-.77.83-1.24,1.33-.9.92-1.26,1.28-.6.58-.72.67-.4.33-.83.72l-.8.69-.72.62c-.37.33-.62.54-.74.63l-.41.33-.64.53-.62.49c-.14.1-.27.2-.41.28s-.36.23-.71.43-.57.34-.68.42l-.36.22-.43.27-.32.21c-.07.05-.22.12-.44.24l-.82.38c-.31.14-.54.24-.66.28l-.19.07-.2,0a2.46,2.46,0,0,1-.44-.17l-.8-.4a6.76,6.76,0,0,1-.65-.35l-.43-.29-.53-.33-.69-.42L46.76,81c-.13-.08-.26-.18-.4-.28l-.49-.37-.72-.59-.78-.65-1-.83c-.42-.37-.69-.61-.81-.7l-.79-.67-.67-.59-.6-.59L39.78,75l-.93-1c-.48-.52-.77-.83-.87-1s-.23-.29-.42-.51-.34-.41-.44-.55l-.33-.43c-.1-.15-.22-.31-.34-.47s-.22-.3-.32-.43-.18-.24-.24-.34l-.28-.39-.31-.43L35,69l-.32-.48L34.28,68c-.16-.25-.27-.42-.32-.52s-.19-.33-.43-.71-.38-.63-.46-.75l-.55-1-.66-1.18c-.15-.26-.28-.51-.39-.74l-.48-1c-.2-.47-.3-.7-.3-.72s-.1-.26-.31-.76-.36-.89-.47-1.18-.28-.73-.48-1.31-.41-1.22-.61-1.88-.43-1.47-.68-2.43-.42-1.66-.53-2.12-.24-1.15-.42-2-.29-1.47-.32-1.75-.11-1.12-.22-2.54-.19-2.49-.23-3.21-.07-1.48-.11-2.29-.11-2.13-.19-4S26,32.74,26,32V30.83l.11-.06a2.46,2.46,0,0,1,.6-.14l1.36-.22L30.7,30l2.54-.43c.51-.09,1.18-.23,2-.42s1.56-.36,2.17-.53,1.14-.32,1.58-.47l1-.33c.25-.07.48-.15.71-.23l1.36-.5c.68-.25,1.32-.51,1.91-.77s.91-.39.95-.4.33-.13.86-.37l1.44-.67,1.28-.6q.63-.3,1.56-.78l.93-.48Z"/></g><g id="svg_1" data-name="svg 1"><path class="cls-2" d="M51.27,24.32h.21l.91.46,1.21.6,2,.92,1.75.79s.34.13.91.37l1.3.54,1.31.47,1.09.38.57.19.88.26c.35.11.81.24,1.36.38s1.09.28,1.61.4l1,.22,1.45.27,1.52.26,1.51.24,1.22.19,1.17.22,1.17.23h0l0,2.35c0,1.56-.11,3.59-.24,6.07s-.23,4.22-.31,5.2-.16,1.84-.26,2.54-.21,1.37-.34,2-.27,1.26-.42,1.9-.29,1.21-.41,1.69-.26,1-.42,1.56l-.29,1c0,.12-.08.26-.15.44l-.23.67c-.08.26-.22.64-.4,1.13s-.34.89-.46,1.18-.26.65-.44,1.06-.39.9-.66,1.48-.44.92-.49,1l-.59,1-.62,1-.51.84c-.26.44-.43.73-.52.85l-.37.57c-.17.26-.3.45-.41.6l-.35.5-.39.54a4.5,4.5,0,0,0-.3.41q-.11.17-.3.42l-.39.52c-.13.18-.26.36-.41.54s-.27.34-.37.47l-.66.75c-.34.37-.73.79-1.19,1.26s-.86.88-1.2,1.22-.58.55-.69.64-.38.31-.8.68l-.76.66-.69.58-.71.6-.39.32-.61.49L56,79l-.39.27-.69.41-.65.39a3.37,3.37,0,0,1-.34.21c-.13.08-.27.16-.41.26l-.31.2c-.07,0-.21.12-.42.22l-.78.36c-.31.14-.52.23-.64.27l-.18.07-.19,0a2.22,2.22,0,0,1-.42-.16l-.77-.38c-.35-.18-.56-.29-.61-.33l-.42-.28-.5-.31-.67-.39L47,79.38a2.94,2.94,0,0,1-.39-.26l-.46-.36c-.18-.13-.41-.32-.7-.56l-.74-.61-.93-.79L43,76.14l-.75-.63L41.57,75,41,74.39l-.71-.71-.89-1c-.46-.49-.74-.79-.83-.9l-.41-.49c-.18-.21-.32-.39-.42-.52l-.31-.41L37.09,70l-.3-.41a3.78,3.78,0,0,1-.24-.32c-.07-.1-.15-.22-.27-.37L36,68.46c-.08-.13-.19-.28-.33-.48l-.3-.45L35,67a5.29,5.29,0,0,1-.3-.48l-.41-.68c-.22-.37-.37-.6-.44-.71s-.25-.41-.53-.91L32.7,63.1c-.14-.25-.27-.49-.38-.71s-.26-.55-.45-1-.29-.67-.29-.68l-.3-.73-.45-1.12c-.11-.27-.26-.68-.46-1.24s-.39-1.15-.58-1.78-.41-1.4-.65-2.31-.41-1.57-.5-2-.24-1.09-.41-1.93S28,48.21,27.92,48s-.1-1.07-.21-2.42-.18-2.36-.21-3-.07-1.41-.12-2.18-.1-2-.17-3.77-.12-3-.12-3.7V31.75l.11-.06a3.06,3.06,0,0,1,.57-.13l1.3-.21c.56-.08,1.4-.22,2.52-.41s1.94-.32,2.42-.41,1.14-.21,1.94-.39,1.49-.35,2.08-.5,1.09-.31,1.51-.45l1-.31.68-.22,1.3-.48c.65-.24,1.26-.48,1.83-.73s.87-.37.91-.38a7.92,7.92,0,0,0,.82-.35l1.38-.63,1.22-.57,1.5-.74.89-.46Z"/></g></g><path class="cls-2" d="M102.71,53.57c0,2.84-.71,5-2.15,6.53a8.14,8.14,0,0,1-6.2,2.26,13.64,13.64,0,0,1-6.75-1.56V55.21a11.61,11.61,0,0,0,6.25,2.23,3.13,3.13,0,0,0,2.44-.9,3.42,3.42,0,0,0,.82-2.43,4.41,4.41,0,0,0-1-2.77,14.7,14.7,0,0,0-3.22-2.8A14.16,14.16,0,0,1,90,46a9.57,9.57,0,0,1-1.56-2.77,10.56,10.56,0,0,1-.55-3.58A8.62,8.62,0,0,1,90,33.42a7.67,7.67,0,0,1,5.83-2.28,12.8,12.8,0,0,1,6.71,2l-1.87,4.53a17,17,0,0,0-2.09-1,6.1,6.1,0,0,0-2.34-.46,2.57,2.57,0,0,0-2.11.91,3.78,3.78,0,0,0-.73,2.46,4.25,4.25,0,0,0,.88,2.68,13.3,13.3,0,0,0,3.08,2.59,12.7,12.7,0,0,1,4.15,4.08A9.45,9.45,0,0,1,102.71,53.57Z"/><path class="cls-2" d="M125.21,61.94h-5.65V48.63H112.1V61.94h-5.65V31.57h5.65V43.64h7.46V31.57h5.65Z"/><path class="cls-2" d="M131.59,61.94V31.57h5.32V61.94Z"/><path class="cls-2" d="M157,61.94H143.32V31.57H157v4.89h-8v7.22h7.46v4.91H149V57h8Z"/><path class="cls-2" d="M161.44,61.94V31.57h5.65V57h7.83v4.94Z"/><path class="cls-2" d="M197.86,46.47q0,7.52-3.07,11.5t-8.82,4h-7.43V31.57h8.12a9.75,9.75,0,0,1,8.25,3.92Q197.85,39.41,197.86,46.47Zm-5.8.16q0-10.17-5.61-10.17h-2.26V57H186a4.89,4.89,0,0,0,4.57-2.59Q192.07,51.83,192.06,46.63Z"/><path class="cls-2" d="M232.11,46.47q0,7.52-3.06,11.5c-2.05,2.65-5,4-8.82,4h-7.44V31.57h8.13a9.72,9.72,0,0,1,8.24,3.92Q232.12,39.41,232.11,46.47Zm-5.79.16q0-10.17-5.61-10.17h-2.27V57h1.83a4.9,4.9,0,0,0,4.57-2.59C225.82,52.69,226.32,50.1,226.32,46.63Z"/><path class="cls-2" d="M250.91,61.94l-1.74-7.66h-7.92l-1.74,7.66h-5.65l7.52-30.49H249l7.54,30.49Zm-2.8-12.67-1.62-7.06c-.1-.43-.32-1.51-.66-3.23s-.54-2.88-.61-3.46c-.18,1.19-.41,2.5-.69,3.94s-1,4.7-2.16,9.81Z"/><path class="cls-2" d="M267.14,61.94h-5.63V36.54h-5.82v-5H273v5h-5.81Z"/><path class="cls-2" d="M289.12,61.94l-1.75-7.66h-7.91l-1.75,7.66h-5.65l7.52-30.49h7.67l7.54,30.49Zm-2.81-12.67-1.62-7.06c-.1-.43-.31-1.51-.65-3.23s-.55-2.88-.62-3.46c-.18,1.19-.41,2.5-.68,3.94s-1,4.7-2.16,9.81Z"/><path class="cls-2" d="M324.53,40.92c0,3.23-.81,5.7-2.44,7.43s-4,2.58-7,2.58h-1.41v11H308V31.57h7.7Q324.53,31.57,324.53,40.92ZM313.63,46h1.08a3.94,3.94,0,0,0,3.09-1.14,5.56,5.56,0,0,0,1-3.74,5.59,5.59,0,0,0-.93-3.54A3.51,3.51,0,0,0,315,36.46h-1.37Z"/><path class="cls-2" d="M334,50.12V61.94h-5.65V31.57h7.39q4.69,0,6.93,2.23t2.23,6.79c0,3.83-1.29,6.52-3.88,8l5.84,13.31h-6.05L336,50.12Zm0-4.86h1.45a3.38,3.38,0,0,0,2.87-1.13,5.48,5.48,0,0,0,.87-3.38,4.82,4.82,0,0,0-.92-3.31,3.74,3.74,0,0,0-2.86-1H334Z"/><path class="cls-2" d="M370.53,46.72q0,7.53-2.83,11.59a10.11,10.11,0,0,1-16.18,0c-1.88-2.69-2.83-6.58-2.83-11.64s.95-8.89,2.83-11.56a9.34,9.34,0,0,1,8.14-4,9.19,9.19,0,0,1,8.06,4Q370.53,39.17,370.53,46.72Zm-16.06,0a18.85,18.85,0,0,0,1.31,7.91,4.12,4.12,0,0,0,3.84,2.72q5.11,0,5.11-10.63t-5.07-10.64a4.16,4.16,0,0,0-3.88,2.71A18.89,18.89,0,0,0,354.47,46.72Z"/><path class="cls-2" d="M383.72,61.94h-5.63V36.54h-5.82v-5h17.27v5h-5.82Z"/><path class="cls-2" d="M406.47,61.94H392.78V31.57h13.69v4.89h-8v7.22h7.45v4.91h-7.45V57h8Z"/><path class="cls-2" d="M421,36.08q-2.43,0-3.84,2.85a18.25,18.25,0,0,0-1.4,7.91q0,10.56,5.51,10.55a10.05,10.05,0,0,0,5-1.53v5a10,10,0,0,1-5.69,1.48,8.93,8.93,0,0,1-7.88-4.08Q410,54.2,410,46.8t2.83-11.53a9,9,0,0,1,7.88-4.13,11.18,11.18,0,0,1,3.19.45,13.11,13.11,0,0,1,3.28,1.6l-1.87,4.59a17.77,17.77,0,0,0-2-1.17A5.08,5.08,0,0,0,421,36.08Z"/><path class="cls-2" d="M439.91,61.94h-5.63V36.54h-5.82v-5h17.27v5h-5.82Z"/><path class="cls-2" d="M450,61.94V31.57h5.31V61.94Z"/><path class="cls-2" d="M482.62,46.72q0,7.53-2.82,11.59a10.12,10.12,0,0,1-16.19,0c-1.88-2.69-2.82-6.58-2.82-11.64s.94-8.89,2.82-11.56a9.36,9.36,0,0,1,8.15-4,9.2,9.2,0,0,1,8.06,4Q482.63,39.17,482.62,46.72Zm-16.06,0a18.85,18.85,0,0,0,1.31,7.91,4.15,4.15,0,0,0,3.85,2.72q5.1,0,5.11-10.63t-5.07-10.64a4.17,4.17,0,0,0-3.89,2.71A18.89,18.89,0,0,0,466.56,46.72Z"/><path class="cls-2" d="M508.32,61.94h-6.9L492,40h-.27a26.32,26.32,0,0,1,.52,5.4V61.94h-5.23V31.57H494l9.3,21.77h.23a29.85,29.85,0,0,1-.39-5.19V31.57h5.19Z"/></g></g></svg>