<svg xmlns="http://www.w3.org/2000/svg" viewBox="0 0 290 113"><defs><style>.cls-1{fill:#0071bc;}.cls-2{fill:#fff;}</style></defs><title>shield-s2nsr-bg</title><g id="Layer_2" data-name="Layer 2"><g id="Layer_1-2" data-name="Layer 1"><rect class="cls-1" width="290" height="113"/><g id="svg_2" data-name="svg 2"><g id="path2"><path class="cls-2" d="M71.07,13.11h.31l1.36.68,1.78.9,3,1.39c1.69.78,2.56,1.17,2.61,1.18s.51.19,1.35.55,1.48.63,1.93.81,1.1.41,2,.71L87,19.9l.84.28,1.31.4c.53.16,1.21.35,2,.57s1.62.42,2.39.59l1.5.33,2.15.4c1.21.22,2,.36,2.27.4l2.25.36,1.81.28,1.74.33c1.15.22,1.72.34,1.73.35h0l-.07,3.52q-.07,3.53-.36,9.11t-.46,7.8q-.16,2.22-.39,3.81t-.51,3c-.19.94-.4,1.9-.62,2.86s-.43,1.81-.61,2.53-.39,1.51-.63,2.34l-.43,1.51c-.05.18-.12.4-.22.67s-.21.6-.34,1-.33,1-.6,1.7-.5,1.33-.68,1.78-.39,1-.65,1.58-.59,1.36-1,2.22-.65,1.37-.73,1.52l-.88,1.54c-.51.9-.81,1.42-.92,1.59l-.75,1.25c-.39.67-.65,1.1-.77,1.28s-.31.46-.56.85-.45.69-.6.9-.33.46-.53.76-.4.56-.58.8-.33.45-.44.61a7.11,7.11,0,0,1-.46.64l-.58.78q-.27.39-.6.81l-.56.71c-.15.19-.48.57-1,1.12S88.4,86,87.72,86.67,86.45,88,85.93,88.49a13.28,13.28,0,0,1-1,1c-.16.13-.56.47-1.18,1l-1.14,1-1,.87c-.54.47-.9.77-1.06.9s-.37.29-.58.48l-.91.74-.88.7c-.2.15-.4.28-.58.4l-1,.62c-.49.29-.81.48-1,.59l-.52.32c-.2.11-.4.23-.61.37l-.46.31a6.85,6.85,0,0,1-.63.33l-1.16.55c-.45.2-.76.34-.94.4l-.26.09-.29-.07a3,3,0,0,1-.63-.23l-1.14-.57c-.53-.27-.84-.44-.92-.5s-.28-.2-.61-.41l-.75-.48-1-.59-1-.61c-.18-.12-.38-.25-.58-.4l-.69-.54-1-.83L61.24,93c-.31-.26-.77-.65-1.37-1.18l-1.16-1-1.12-1c-.57-.49-.89-.77-1-.84l-.86-.84c-.51-.49-.86-.85-1.06-1.06l-1.33-1.42q-1-1.09-1.23-1.35l-.61-.73-.63-.78-.46-.62L50,81.55l-.46-.61c-.14-.18-.25-.35-.35-.49l-.4-.55c-.17-.23-.31-.44-.43-.62l-.49-.71-.46-.68c-.1-.17-.27-.43-.5-.78a8.46,8.46,0,0,1-.46-.74c-.07-.13-.28-.47-.61-1s-.54-.9-.65-1.07-.37-.62-.78-1.36l-1-1.68c-.21-.37-.39-.73-.55-1.06s-.39-.83-.68-1.49-.43-1-.43-1-.15-.37-.44-1.08-.52-1.27-.68-1.68-.38-1-.67-1.87-.58-1.73-.87-2.67-.62-2.1-1-3.46-.6-2.36-.75-3-.35-1.63-.6-2.89-.41-2.09-.46-2.48-.16-1.6-.32-3.62-.26-3.54-.31-4.56-.11-2.11-.17-3.26-.15-3-.27-5.66S35.1,27,35.1,25.88V24.25l.16-.09a4.52,4.52,0,0,1,.86-.2l1.93-.31c.82-.12,2.07-.33,3.75-.61l3.6-.61c.73-.13,1.68-.33,2.88-.6s2.22-.52,3.09-.75,1.62-.46,2.25-.66l1.47-.48,1-.33L58,18.9c1-.36,1.87-.73,2.72-1.1s1.3-.56,1.35-.57a10.38,10.38,0,0,0,1.22-.53l2.06-.94,1.81-.85c.6-.29,1.34-.66,2.22-1.12l1.33-.68Z"/></g><g id="svg_1" data-name="svg 1"><path class="cls-2" d="M71.07,15h.3l1.29.65,1.71.85c.28.14,1.23.57,2.84,1.31s2.44,1.12,2.49,1.13a13.47,13.47,0,0,1,1.29.52c.8.35,1.42.6,1.85.77s1,.39,1.87.67l1.55.54.81.27,1.25.38,1.94.54c.79.21,1.55.39,2.29.56l1.43.31,2.06.38,2.17.39,2.16.33,1.73.27,1.66.32,1.66.32h0l-.07,3.35c0,2.23-.16,5.11-.35,8.64s-.33,6-.44,7.4-.23,2.61-.37,3.61-.3,2-.48,2.85-.39,1.81-.6,2.72-.41,1.71-.58,2.4-.37,1.43-.6,2.22-.37,1.27-.42,1.44a5.72,5.72,0,0,1-.21.63c-.09.25-.2.57-.32.94s-.32.91-.58,1.62-.48,1.26-.65,1.68-.37.92-.62,1.5-.56,1.29-1,2.11-.62,1.3-.69,1.44l-.85,1.47q-.72,1.26-.87,1.5c-.11.16-.34.55-.72,1.19s-.63,1-.74,1.21-.29.44-.53.81-.44.65-.58.85-.32.44-.51.72-.38.53-.56.76-.31.43-.41.59-.25.36-.44.6l-.56.74c-.17.25-.37.5-.57.77l-.54.67c-.14.19-.45.54-.93,1.07s-1,1.12-1.69,1.79-1.22,1.25-1.71,1.73-.82.78-1,.91-.54.45-1.14,1l-1.08.95-1,.83c-.51.44-.85.72-1,.85l-.56.45-.87.7-.84.67-.55.38-1,.58-.92.56-.5.31L74.3,95l-.44.3a6.74,6.74,0,0,1-.6.31l-1.11.52c-.43.19-.73.32-.9.38l-.25.09-.28-.07a2.76,2.76,0,0,1-.6-.22L69,95.8c-.51-.26-.8-.41-.88-.47s-.27-.19-.59-.4l-.71-.45c-.17-.09-.48-.28-.95-.56s-.8-.47-1-.58-.37-.24-.56-.38l-.66-.51-1-.79-1.06-.88-1.32-1.12c-.58-.5-1-.82-1.11-.94l-1.07-.9-.91-.8-.82-.79-1-1-1.27-1.35c-.65-.7-1-1.12-1.18-1.28l-.58-.69-.6-.75-.44-.58-.46-.63-.44-.58c-.13-.17-.24-.33-.33-.46s-.22-.31-.39-.53-.3-.41-.41-.58l-.46-.67c-.2-.28-.34-.5-.44-.66l-.49-.74c-.22-.33-.37-.56-.44-.69s-.26-.45-.58-1l-.62-1q-.15-.22-.75-1.29l-.9-1.59c-.21-.36-.38-.7-.54-1s-.37-.79-.64-1.41-.42-1-.42-1-.14-.36-.42-1L42,64.16c-.16-.39-.37-1-.65-1.78s-.56-1.64-.83-2.53-.59-2-.93-3.28-.58-2.24-.72-2.87-.33-1.54-.57-2.74-.4-2-.44-2.36-.15-1.51-.3-3.43-.26-3.36-.3-4.33-.1-2-.17-3.1-.14-2.88-.25-5.36-.16-4.24-.16-5.27V25.56l.15-.08a3.61,3.61,0,0,1,.82-.19L39.48,25l3.58-.59,3.45-.58c.69-.12,1.61-.31,2.75-.56s2.13-.5,3-.72,1.55-.43,2.15-.63l1.41-.45,1-.31,1.85-.67c.93-.35,1.79-.7,2.6-1s1.25-.53,1.3-.54a12,12,0,0,0,1.17-.5l2-.9,1.74-.81c.57-.27,1.28-.62,2.12-1.05L70.77,15Z"/></g></g><path class="cls-2" d="M137.17,54.9q0,5.67-2.85,8.68c-1.91,2-4.66,3-8.25,3a18.15,18.15,0,0,1-9-2.07V57.08c3,2,5.79,3,8.32,3a4.18,4.18,0,0,0,3.24-1.19,4.58,4.58,0,0,0,1.09-3.23,5.92,5.92,0,0,0-1.29-3.69,19.63,19.63,0,0,0-4.28-3.71,18.75,18.75,0,0,1-3.94-3.44,12.5,12.5,0,0,1-2.07-3.69,14,14,0,0,1-.73-4.75,11.48,11.48,0,0,1,2.88-8.23,10.18,10.18,0,0,1,7.75-3,17,17,0,0,1,8.92,2.6l-2.48,6a22.47,22.47,0,0,0-2.78-1.38,7.88,7.88,0,0,0-3.11-.61,3.41,3.41,0,0,0-2.8,1.2,5,5,0,0,0-1,3.28A5.66,5.66,0,0,0,126,39.74a17.46,17.46,0,0,0,4.1,3.45,16.93,16.93,0,0,1,5.51,5.42A12.57,12.57,0,0,1,137.17,54.9Z"/><path class="cls-2" d="M167.09,66h-7.51V48.33h-9.92V66h-7.51V25.65h7.51V41.7h9.92V25.65h7.51Z"/><path class="cls-2" d="M175.57,66V25.65h7.07V66Z"/><path class="cls-2" d="M209.38,66H191.17V25.65h18.21v6.49H198.69v9.62h9.91v6.51h-9.91V59.46h10.69Z"/><path class="cls-2" d="M215.26,66V25.65h7.51V59.46h10.42V66Z"/><path class="cls-2" d="M263.68,45.46q0,10-4.07,15.28T247.88,66H238V25.65h10.8a13,13,0,0,1,11,5.21Q263.68,36.07,263.68,45.46Zm-7.71.22q0-13.55-7.45-13.54h-3V59.46h2.44A6.52,6.52,0,0,0,254,56Q256,52.58,256,45.68Z"/><path class="cls-2" d="M127.17,82a9.23,9.23,0,0,1-1.52,5.71,5.21,5.21,0,0,1-4.39,2h-3.69V74.56h4a4.83,4.83,0,0,1,4.09,1.94A8.91,8.91,0,0,1,127.17,82Zm-2.88.08q0-5.06-2.79-5.06h-1.12V87.19h.91a2.45,2.45,0,0,0,2.27-1.28A8.15,8.15,0,0,0,124.29,82Z"/><path class="cls-2" d="M136.51,89.65l-.87-3.81h-3.93l-.87,3.81H128l3.73-15.15h3.81l3.75,15.15Zm-1.39-6.3-.81-3.51c-.05-.21-.15-.74-.32-1.6s-.27-1.43-.31-1.72c-.09.59-.2,1.24-.34,2s-.49,2.33-1.07,4.87Z"/><path class="cls-2" d="M144.57,89.65h-2.8V77h-2.89V74.56h8.58V77h-2.89Z"/><path class="cls-2" d="M155.49,89.65l-.87-3.81h-3.93l-.86,3.81H147l3.73-15.15h3.81l3.75,15.15Zm-1.39-6.3-.81-3.51c0-.21-.15-.74-.32-1.6s-.27-1.43-.31-1.72c-.09.59-.2,1.24-.34,2s-.49,2.33-1.07,4.87Z"/><path class="cls-2" d="M173.09,79.2a5.14,5.14,0,0,1-1.21,3.69,4.59,4.59,0,0,1-3.51,1.29h-.7v5.47h-2.81V74.56h3.83Q173.09,74.56,173.09,79.2Zm-5.42,2.54h.54a2,2,0,0,0,1.54-.56,2.82,2.82,0,0,0,.5-1.86,2.76,2.76,0,0,0-.46-1.76,1.75,1.75,0,0,0-1.44-.58h-.68Z"/><path class="cls-2" d="M177.8,83.78v5.87H175V74.56h3.67a4.75,4.75,0,0,1,3.45,1.1,4.64,4.64,0,0,1,1.1,3.38,4.23,4.23,0,0,1-1.92,4l2.9,6.62h-3l-2.38-5.87Zm0-2.42h.72a1.69,1.69,0,0,0,1.42-.56,2.74,2.74,0,0,0,.44-1.68,2.38,2.38,0,0,0-.46-1.64,1.86,1.86,0,0,0-1.42-.5h-.7Z"/><path class="cls-2" d="M195.94,82.08a10,10,0,0,1-1.4,5.76,5,5,0,0,1-8,0,10,10,0,0,1-1.41-5.79,9.89,9.89,0,0,1,1.41-5.74,5,5,0,0,1,8.05,0A10,10,0,0,1,195.94,82.08Zm-8,0a9.49,9.49,0,0,0,.65,3.94,2.06,2.06,0,0,0,1.91,1.35c1.7,0,2.54-1.76,2.54-5.29s-.84-5.28-2.52-5.28a2.08,2.08,0,0,0-1.93,1.35A9.37,9.37,0,0,0,188,82.08Z"/><path class="cls-2" d="M202.5,89.65h-2.8V77h-2.89V74.56h8.58V77H202.5Z"/><path class="cls-2" d="M213.8,89.65H207V74.56h6.8V77h-4v3.6h3.71V83H209.8v4.18h4Z"/><path class="cls-2" d="M221,76.8a2.12,2.12,0,0,0-1.9,1.41,9,9,0,0,0-.7,3.94q0,5.23,2.74,5.24a5,5,0,0,0,2.5-.77v2.5a5,5,0,0,1-2.82.74,4.45,4.45,0,0,1-3.92-2,10.17,10.17,0,0,1-1.37-5.71,10,10,0,0,1,1.41-5.72,4.5,4.5,0,0,1,3.92-2.06,5.49,5.49,0,0,1,1.58.23,6.53,6.53,0,0,1,1.63.79l-.93,2.29a8.08,8.08,0,0,0-1-.59A2.59,2.59,0,0,0,221,76.8Z"/><path class="cls-2" d="M230.42,89.65h-2.8V77h-2.89V74.56h8.58V77h-2.89Z"/><path class="cls-2" d="M235.42,89.65V74.56h2.64V89.65Z"/><path class="cls-2" d="M251.64,82.08a10,10,0,0,1-1.41,5.76,4.57,4.57,0,0,1-4,2,4.62,4.62,0,0,1-4-2,10.1,10.1,0,0,1-1.4-5.79,10,10,0,0,1,1.4-5.74,4.66,4.66,0,0,1,4.05-2,4.57,4.57,0,0,1,4,2A10,10,0,0,1,251.64,82.08Zm-8,0a9.49,9.49,0,0,0,.65,3.94,2.05,2.05,0,0,0,1.91,1.35q2.53,0,2.54-5.29t-2.52-5.28a2.07,2.07,0,0,0-1.93,1.35A9.37,9.37,0,0,0,243.66,82.08Z"/><path class="cls-2" d="M264.4,89.65H261l-4.67-10.93h-.13a13.39,13.39,0,0,1,.26,2.68v8.25h-2.61V74.56h3.45l4.63,10.82H262a14.86,14.86,0,0,1-.2-2.58V74.56h2.58Z"/></g></g></svg>