<svg xmlns="http://www.w3.org/2000/svg" viewBox="0 0 290 116"><defs><style>.cls-1{fill:#0071bc;}.cls-2{fill:#fff;}.cls-3{fill:none;stroke:#fff;stroke-miterlimit:10;stroke-width:2px;}</style></defs><title>shield-s1nsr-bg</title><g id="Layer_2" data-name="Layer 2"><g id="Layer_1-2" data-name="Layer 1"><rect class="cls-1" width="290" height="116"/><g id="svg_2" data-name="svg 2"><g id="path2"><path class="cls-2" d="M68.07,12h.31l1.36.69,1.78.89c.29.15,1.28.61,3,1.39s2.56,1.17,2.61,1.18.51.19,1.35.56,1.48.63,1.93.8,1.1.41,2,.71l1.62.57.84.28,1.31.4c.53.16,1.21.35,2,.57s1.62.42,2.39.59L92,21l2.15.4,2.27.41,2.25.35,1.81.28,1.74.34,1.73.34h0l-.07,3.52q-.07,3.53-.36,9.11t-.46,7.8q-.16,2.22-.39,3.81t-.51,3c-.19,1-.4,1.9-.62,2.86s-.43,1.81-.61,2.53-.39,1.51-.63,2.34l-.43,1.52c-.05.17-.12.39-.22.66s-.21.6-.34,1-.33,1-.6,1.7-.5,1.34-.68,1.78-.39,1-.65,1.58-.59,1.36-1,2.22-.65,1.38-.73,1.52l-.88,1.55c-.51.89-.81,1.41-.92,1.58l-.75,1.25c-.39.67-.65,1.1-.77,1.28l-.56.85q-.37.58-.6.9l-.53.76c-.2.29-.4.56-.58.8s-.33.45-.44.62-.26.37-.46.63l-.58.78q-.27.39-.6.81l-.56.71c-.15.2-.48.57-1,1.12s-1.08,1.18-1.76,1.89-1.27,1.32-1.79,1.82a13.28,13.28,0,0,1-1,1c-.16.14-.56.47-1.18,1l-1.14,1-1,.88-1.06.89-.58.48-.91.74-.88.7c-.2.15-.4.28-.58.4l-1,.62c-.49.29-.81.49-1,.59l-.52.32a6,6,0,0,0-.61.38l-.46.3a3.88,3.88,0,0,1-.63.33l-1.16.55c-.45.2-.76.34-.94.4L68,98,67.71,98a2.55,2.55,0,0,1-.63-.23l-1.14-.57a8.19,8.19,0,0,1-.92-.5c-.08-.06-.28-.2-.61-.41l-.75-.47-1-.6-1-.61c-.18-.12-.38-.25-.58-.4l-.69-.53-1-.84-1.11-.93c-.31-.26-.77-.65-1.37-1.18l-1.16-1c-.17-.13-.54-.45-1.12-1s-.89-.77-1-.84l-.86-.84c-.51-.49-.86-.85-1.06-1.06l-1.33-1.42q-1-1.1-1.23-1.35l-.61-.73-.63-.78-.46-.61c-.15-.22-.31-.44-.48-.67l-.46-.61c-.14-.18-.25-.34-.35-.49l-.4-.55c-.17-.23-.31-.44-.43-.62s-.29-.41-.49-.71l-.46-.68c-.1-.17-.27-.43-.5-.78a8.46,8.46,0,0,1-.46-.74c-.07-.13-.28-.47-.61-1s-.54-.9-.65-1.07-.37-.61-.78-1.36l-1-1.67c-.21-.38-.39-.74-.55-1.07s-.39-.83-.68-1.49-.43-1-.43-1-.15-.38-.44-1.09-.52-1.27-.68-1.68-.38-1-.67-1.87-.58-1.73-.87-2.67-.62-2.1-1-3.45-.6-2.37-.75-3-.35-1.62-.6-2.89-.41-2.08-.46-2.48-.16-1.6-.32-3.62-.26-3.54-.31-4.56-.11-2.11-.17-3.26-.15-3-.27-5.65-.17-4.47-.17-5.56V23.14l.16-.09a4.52,4.52,0,0,1,.86-.2l1.93-.3c.82-.13,2.07-.33,3.75-.62l3.6-.61c.73-.13,1.68-.33,2.88-.59s2.22-.52,3.09-.76,1.62-.46,2.25-.66l1.47-.48,1-.33c.32-.11,1-.34,1.93-.71s1.87-.73,2.72-1.1,1.3-.56,1.35-.56.47-.19,1.22-.54l2.06-.94,1.81-.85q.9-.44,2.22-1.11L67.75,12Z"/></g><g id="svg_1" data-name="svg 1"><path class="cls-2" d="M68.07,13.88h.3l1.29.65,1.71.85,2.84,1.32c1.61.74,2.44,1.11,2.49,1.12s.49.18,1.29.52,1.42.6,1.85.77,1,.39,1.87.67l1.55.54.81.27,1.25.38,1.94.54c.79.21,1.55.4,2.29.56l1.43.31,2.06.39,2.17.38,2.16.33,1.73.27,1.66.32,1.66.32h0l-.07,3.35c0,2.23-.16,5.11-.35,8.64s-.33,6-.44,7.4-.23,2.61-.37,3.62-.3,2-.48,2.85-.39,1.8-.6,2.71-.41,1.71-.58,2.4-.37,1.43-.6,2.22-.37,1.28-.42,1.44a5.72,5.72,0,0,1-.21.63c-.09.25-.2.57-.32.94s-.32.91-.58,1.62-.48,1.26-.65,1.68-.37.92-.62,1.5-.56,1.29-1,2.11-.62,1.3-.69,1.44l-.85,1.47c-.48.84-.77,1.35-.87,1.5s-.34.56-.72,1.19-.63,1-.74,1.21l-.53.81c-.24.37-.44.65-.58.85l-.51.72c-.19.28-.38.53-.56.77s-.31.42-.41.58a7.21,7.21,0,0,1-.44.6l-.56.75c-.17.24-.37.5-.57.76l-.54.67c-.14.19-.45.54-.93,1.07S84.65,83,84,83.69s-1.22,1.25-1.71,1.73-.82.78-1,.91-.54.45-1.14,1l-1.08.95-1,.83c-.51.44-.85.72-1,.85l-.56.45-.87.71-.84.66-.55.38-1,.58-.92.56-.5.31a6.62,6.62,0,0,0-.58.36l-.44.29a6.74,6.74,0,0,1-.6.31l-1.11.52c-.43.19-.73.32-.9.38l-.25.09-.28-.07a2.76,2.76,0,0,1-.6-.22L66,94.69c-.51-.26-.8-.41-.88-.47s-.27-.19-.59-.4l-.71-.44-1-.57c-.47-.27-.8-.47-1-.58s-.37-.24-.56-.38l-.66-.51-1-.79-1.06-.88c-.3-.24-.74-.62-1.32-1.12l-1.11-.94-1.07-.9-.91-.8-.82-.79c-.49-.47-.82-.81-1-1l-1.27-1.35c-.65-.69-1-1.12-1.18-1.28l-.58-.69-.6-.74-.44-.59-.46-.63-.44-.58c-.13-.17-.24-.32-.33-.46s-.22-.31-.39-.53-.3-.41-.41-.58L45.86,76c-.2-.28-.34-.5-.44-.65l-.49-.74c-.22-.34-.37-.57-.44-.7s-.26-.45-.58-1l-.62-1q-.15-.22-.75-1.29l-.9-1.59c-.21-.36-.38-.69-.54-1s-.37-.78-.64-1.41-.42-1-.42-1-.14-.36-.42-1-.49-1.2-.64-1.59-.37-1-.65-1.78-.56-1.63-.83-2.53-.59-2-.93-3.28-.58-2.24-.72-2.87-.33-1.54-.57-2.74-.4-2-.44-2.35-.15-1.52-.3-3.44-.26-3.36-.3-4.33-.1-2-.17-3.1-.14-2.88-.25-5.36S33.66,27,33.66,26V24.45l.15-.08a3.61,3.61,0,0,1,.82-.19l1.85-.29,3.58-.59c1.61-.26,2.75-.46,3.45-.58s1.61-.31,2.75-.56,2.13-.49,3-.72,1.55-.43,2.15-.63l1.41-.45c.34-.1.66-.2,1-.31s.93-.33,1.85-.67,1.79-.69,2.6-1.05,1.25-.53,1.3-.53.44-.18,1.17-.51l2-.9,1.74-.81c.57-.26,1.28-.62,2.12-1.05l1.28-.65Z"/></g></g><path class="cls-2" d="M134.17,53.79q0,5.67-2.85,8.68c-1.91,2-4.66,3-8.25,3a18.15,18.15,0,0,1-9-2.07V56q4.53,3,8.32,3a4.15,4.15,0,0,0,3.24-1.19,4.56,4.56,0,0,0,1.09-3.23,5.92,5.92,0,0,0-1.29-3.69,19.63,19.63,0,0,0-4.28-3.71,18.75,18.75,0,0,1-3.94-3.44A12.37,12.37,0,0,1,115.16,40a14,14,0,0,1-.73-4.75A11.48,11.48,0,0,1,117.31,27a10.22,10.22,0,0,1,7.75-3,17,17,0,0,1,8.92,2.6l-2.48,6a25.68,25.68,0,0,0-2.78-1.38,7.88,7.88,0,0,0-3.11-.61,3.41,3.41,0,0,0-2.8,1.2,5,5,0,0,0-1,3.28A5.66,5.66,0,0,0,123,38.63a17.46,17.46,0,0,0,4.1,3.45,17,17,0,0,1,5.51,5.42A12.57,12.57,0,0,1,134.17,53.79Z"/><path class="cls-2" d="M164.09,64.93h-7.51V47.22h-9.92V64.93h-7.51V24.54h7.51V40.59h9.92V24.54h7.51Z"/><path class="cls-2" d="M172.57,64.93V24.54h7.07V64.93Z"/><path class="cls-2" d="M206.38,64.93H188.17V24.54h18.21V31H195.69v9.62h9.91v6.52h-9.91V58.35h10.69Z"/><path class="cls-2" d="M212.26,64.93V24.54h7.51V58.35h10.42v6.58Z"/><path class="cls-2" d="M260.68,44.35q0,10-4.07,15.29t-11.73,5.29H235V24.54h10.8a13,13,0,0,1,11,5.21Q260.68,35,260.68,44.35Zm-7.71.22Q253,31,245.52,31h-3V58.35h2.44A6.5,6.5,0,0,0,251,54.91Q253,51.47,253,44.57Z"/><path class="cls-2" d="M124.17,80.85a9.23,9.23,0,0,1-1.52,5.71,5.21,5.21,0,0,1-4.39,2h-3.69V73.45h4a4.82,4.82,0,0,1,4.09,2A8.85,8.85,0,0,1,124.17,80.85Zm-2.88.08q0-5.06-2.79-5.05h-1.12v10.2h.91a2.43,2.43,0,0,0,2.27-1.28A8.15,8.15,0,0,0,121.29,80.93Z"/><path class="cls-2" d="M133.51,88.54l-.87-3.81h-3.93l-.87,3.81H125l3.73-15.15h3.81l3.75,15.15Zm-1.39-6.29-.81-3.51c-.05-.22-.15-.75-.32-1.61s-.27-1.43-.31-1.72c-.09.59-.2,1.25-.34,2s-.49,2.34-1.07,4.88Z"/><path class="cls-2" d="M141.57,88.54h-2.8V75.92h-2.89V73.45h8.58v2.47h-2.89Z"/><path class="cls-2" d="M152.49,88.54l-.87-3.81h-3.93l-.86,3.81H144l3.73-15.15h3.81l3.75,15.15Zm-1.39-6.29-.81-3.51c0-.22-.15-.75-.32-1.61s-.27-1.43-.31-1.72c-.09.59-.2,1.25-.34,2s-.49,2.34-1.07,4.88Z"/><path class="cls-2" d="M170.09,78.1a5.18,5.18,0,0,1-1.21,3.69,4.62,4.62,0,0,1-3.51,1.28h-.7v5.47h-2.81V73.45h3.83Q170.09,73.45,170.09,78.1Zm-5.42,2.53h.54a2,2,0,0,0,1.54-.56,2.82,2.82,0,0,0,.5-1.86,2.76,2.76,0,0,0-.46-1.76,1.75,1.75,0,0,0-1.44-.57h-.68Z"/><path class="cls-2" d="M174.8,82.67v5.87H172V73.45h3.67a4.71,4.71,0,0,1,3.45,1.11,4.6,4.6,0,0,1,1.1,3.37,4.23,4.23,0,0,1-1.92,4l2.9,6.62h-3l-2.38-5.87Zm0-2.42h.72a1.66,1.66,0,0,0,1.42-.56,2.7,2.7,0,0,0,.44-1.68,2.38,2.38,0,0,0-.46-1.64,1.85,1.85,0,0,0-1.42-.49h-.7Z"/><path class="cls-2" d="M192.94,81a10,10,0,0,1-1.4,5.75,5,5,0,0,1-8,0A10,10,0,0,1,182.09,81a9.89,9.89,0,0,1,1.41-5.74,5,5,0,0,1,8.05,0A10,10,0,0,1,192.94,81Zm-8,0a9.4,9.4,0,0,0,.65,3.93,2.06,2.06,0,0,0,1.91,1.35c1.7,0,2.54-1.76,2.54-5.28s-.84-5.29-2.52-5.29A2.08,2.08,0,0,0,185.61,77,9.42,9.42,0,0,0,185,81Z"/><path class="cls-2" d="M199.5,88.54h-2.8V75.92h-2.89V73.45h8.58v2.47H199.5Z"/><path class="cls-2" d="M210.8,88.54H204V73.45h6.8v2.43h-4v3.59h3.71V81.9H206.8v4.18h4Z"/><path class="cls-2" d="M218,75.69a2.12,2.12,0,0,0-1.9,1.41,9,9,0,0,0-.7,3.94q0,5.24,2.74,5.24a5,5,0,0,0,2.5-.76V88a5,5,0,0,1-2.82.74,4.45,4.45,0,0,1-3.92-2,10.13,10.13,0,0,1-1.37-5.7,10,10,0,0,1,1.41-5.73,4.5,4.5,0,0,1,3.92-2.06,5.49,5.49,0,0,1,1.58.23,6.26,6.26,0,0,1,1.63.8l-.93,2.28a8.08,8.08,0,0,0-1-.59A2.59,2.59,0,0,0,218,75.69Z"/><path class="cls-2" d="M227.42,88.54h-2.8V75.92h-2.89V73.45h8.58v2.47h-2.89Z"/><path class="cls-2" d="M232.42,88.54V73.45h2.64V88.54Z"/><path class="cls-2" d="M248.64,81a10,10,0,0,1-1.41,5.75,4.57,4.57,0,0,1-4,2,4.62,4.62,0,0,1-4-2,10.1,10.1,0,0,1-1.4-5.79,10,10,0,0,1,1.4-5.74,4.66,4.66,0,0,1,4.05-2,4.57,4.57,0,0,1,4,2A10,10,0,0,1,248.64,81Zm-8,0a9.4,9.4,0,0,0,.65,3.93,2.05,2.05,0,0,0,1.91,1.35q2.53,0,2.54-5.28t-2.52-5.29A2.07,2.07,0,0,0,241.31,77,9.42,9.42,0,0,0,240.66,81Z"/><path class="cls-2" d="M261.4,88.54H258l-4.67-10.93h-.13a13.39,13.39,0,0,1,.26,2.68v8.25h-2.61V73.45h3.45l4.63,10.82H259a14.7,14.7,0,0,1-.2-2.58V73.45h2.58Z"/><line class="cls-3" x1="112.98" y1="69.35" x2="262.26" y2="69.35"/></g></g></svg>