<svg xmlns="http://www.w3.org/2000/svg" viewBox="0 0 229.3 86.02"><defs><style>.cls-1{fill:#fff;}</style></defs><title>shield-s2nsr</title><g id="Layer_2" data-name="Layer 2"><g id="Layer_1-2" data-name="Layer 1"><g id="svg_2" data-name="svg 2"><g id="path2"><path class="cls-1" d="M36,0h.32l1.35.69,1.79.89c.29.15,1.28.61,3,1.39S44.93,4.14,45,4.15s.5.19,1.34.56,1.48.63,1.94.8l1.95.71,1.62.57.85.28,1.3.4c.53.16,1.21.35,2,.57s1.62.42,2.4.59L59.91,9l2.16.4,2.27.41,2.25.35,1.81.28,1.74.34,1.73.34h0l-.07,3.52q-.07,3.53-.37,9.11T71,31.52c-.11,1.48-.24,2.75-.38,3.81s-.32,2.05-.51,3-.4,1.9-.63,2.86S69,43,68.86,43.72s-.39,1.51-.63,2.34-.39,1.34-.44,1.52-.12.39-.21.66-.21.6-.34,1-.33,1-.61,1.7-.5,1.34-.67,1.78-.4,1-.66,1.58-.58,1.36-1,2.22-.64,1.38-.72,1.52l-.88,1.55c-.51.89-.82,1.41-.92,1.58s-.36.58-.75,1.25-.65,1.1-.78,1.28l-.55.85c-.25.39-.45.69-.61.9l-.53.76c-.2.29-.39.56-.58.8s-.33.45-.43.62-.26.37-.46.63-.4.52-.58.78-.39.53-.61.81l-.55.71c-.15.2-.48.57-1,1.12s-1.09,1.18-1.76,1.89-1.28,1.32-1.79,1.82-.86.83-1,1-.56.47-1.18,1l-1.14,1-1,.88c-.54.46-.89.76-1.06.89l-.58.48-.91.74c-.38.32-.68.55-.88.7s-.39.28-.58.4-.52.33-1,.62l-1,.59L40,84c-.19.11-.39.23-.6.38l-.46.3a5.08,5.08,0,0,1-.63.33l-1.16.55c-.45.2-.77.34-.94.4l-.27.09L35.6,86a2.88,2.88,0,0,1-.63-.23l-1.13-.57a7.26,7.26,0,0,1-.92-.5l-.62-.41-.75-.47-1-.6c-.49-.29-.83-.49-1-.61s-.38-.25-.58-.4-.43-.33-.69-.53l-1-.84-1.11-.93c-.32-.26-.77-.65-1.38-1.18s-1-.86-1.16-1-.54-.45-1.11-1l-1-.84-.85-.84c-.51-.49-.87-.85-1.07-1.06l-1.33-1.42q-1-1.1-1.23-1.35c-.14-.16-.34-.41-.6-.73s-.48-.58-.63-.78-.31-.4-.46-.61-.31-.44-.48-.67l-.46-.61a5.18,5.18,0,0,1-.35-.49l-.4-.55c-.17-.23-.32-.44-.44-.62l-.48-.71c-.2-.29-.36-.52-.46-.68s-.27-.43-.51-.78-.38-.6-.46-.74-.27-.47-.6-1l-.65-1.07c-.11-.16-.37-.61-.79-1.36l-.94-1.67c-.21-.38-.4-.74-.56-1.07s-.38-.83-.67-1.49-.44-1-.44-1-.14-.38-.43-1.09-.52-1.27-.68-1.68-.39-1-.68-1.87S4.3,48.21,4,47.27s-.61-2.1-1-3.45-.61-2.37-.75-3S2,39.17,1.69,37.9s-.41-2.08-.46-2.48-.15-1.6-.31-3.62S.65,28.26.6,27.24.5,25.13.44,24s-.16-3-.27-5.65S0,13.86,0,12.77V11.14l.16-.09a4.31,4.31,0,0,1,.86-.2L3,10.55c.82-.13,2.07-.33,3.74-.62l3.61-.61C11,9.19,12,9,13.17,8.73s2.23-.52,3.1-.76,1.61-.46,2.24-.66L20,6.83l1-.33c.32-.11,1-.34,1.94-.71s1.87-.73,2.72-1.1A13.36,13.36,0,0,1,27,4.13c.06,0,.46-.19,1.22-.54l2.05-.94L32.1,1.8,34.32.69,35.65,0Z"/></g><g id="svg_1" data-name="svg 1"><path class="cls-1" d="M36,1.88h.3l1.3.65,1.71.85L42.1,4.7c1.61.74,2.45,1.11,2.5,1.12s.48.18,1.28.52,1.42.6,1.85.77,1.06.39,1.88.67l1.54.54.81.27L53.21,9l1.95.54c.78.21,1.54.4,2.28.56l1.44.31c.21,0,.9.18,2.06.39l2.17.38,2.15.33,1.74.27,1.66.32,1.65.32h0l-.07,3.35q-.08,3.34-.35,8.64c-.19,3.53-.33,6-.44,7.4s-.23,2.61-.37,3.62-.3,2-.49,2.85-.38,1.8-.6,2.71-.41,1.71-.58,2.4-.37,1.43-.6,2.22-.37,1.28-.41,1.44-.12.37-.21.63-.2.57-.32.94-.32.91-.58,1.62-.48,1.26-.65,1.68L64,53.4c-.25.59-.57,1.29-1,2.11s-.62,1.3-.7,1.44l-.84,1.47c-.49.84-.78,1.35-.88,1.5L60,61.11c-.37.64-.62,1-.74,1.21s-.29.44-.53.81-.43.65-.58.85l-.5.72-.56.77a7.12,7.12,0,0,0-.42.58,5.46,5.46,0,0,1-.44.6l-.55.75c-.18.24-.37.5-.58.76l-.53.67c-.15.19-.46.54-.94,1.07s-1,1.12-1.69,1.79-1.21,1.25-1.71,1.73-.82.78-1,.91l-1.13,1L47,76.24l-1,.83-1,.85-.55.45-.87.71-.84.66c-.2.14-.38.27-.56.38s-.5.31-1,.58l-.93.56c-.14.1-.31.2-.49.31a5.41,5.41,0,0,0-.58.36l-.44.29a6.74,6.74,0,0,1-.6.31l-1.11.52c-.43.19-.73.32-.9.38l-.26.09-.27-.07a3,3,0,0,1-.61-.22l-1.08-.54c-.51-.26-.8-.41-.88-.47l-.59-.4-.72-.44-.95-.57c-.47-.27-.79-.47-1-.58l-.55-.38c-.2-.14-.41-.31-.66-.51s-.58-.46-1-.79l-1.07-.88c-.3-.24-.74-.62-1.32-1.12s-.94-.81-1.11-.94l-1.06-.9c-.55-.47-.85-.74-.91-.8l-.82-.79c-.49-.47-.83-.81-1-1l-1.27-1.35c-.66-.69-1.05-1.12-1.18-1.28l-.58-.69c-.26-.31-.46-.56-.6-.74s-.29-.39-.44-.59l-.46-.63c-.17-.21-.31-.41-.44-.58s-.25-.32-.34-.46l-.38-.53c-.16-.21-.3-.41-.42-.58L13.75,64l-.44-.65-.48-.74c-.23-.34-.37-.57-.44-.7s-.27-.45-.58-1l-.63-1q-.15-.22-.75-1.29l-.9-1.59c-.2-.36-.38-.69-.53-1s-.37-.78-.65-1.41-.41-1-.41-1-.14-.36-.42-1-.49-1.2-.65-1.59-.37-1-.65-1.78-.55-1.63-.83-2.53-.58-2-.92-3.28-.58-2.24-.72-2.87-.33-1.54-.58-2.74-.39-2-.44-2.35-.14-1.52-.3-3.44-.25-3.36-.3-4.33-.1-2-.16-3.1-.15-2.88-.26-5.36S1.55,15,1.55,14V12.45l.15-.08a3.77,3.77,0,0,1,.82-.19l1.85-.29L8,11.3l3.44-.58c.7-.12,1.61-.31,2.76-.56s2.12-.49,3-.72,1.55-.43,2.15-.63l1.41-.45c.34-.1.66-.2,1-.31s.92-.33,1.85-.67,1.79-.69,2.6-1,1.24-.53,1.29-.53.45-.18,1.17-.51l2-.9,1.73-.81c.57-.26,1.28-.62,2.13-1.05l1.27-.65Z"/></g></g><path class="cls-1" d="M102.07,41.79q0,5.67-2.86,8.68c-1.9,2-4.65,3-8.24,3a18.15,18.15,0,0,1-9-2.07V44q4.53,3,8.31,3a4.17,4.17,0,0,0,3.25-1.19,4.56,4.56,0,0,0,1.09-3.23,5.88,5.88,0,0,0-1.3-3.69,19.16,19.16,0,0,0-4.28-3.71,18.92,18.92,0,0,1-3.93-3.44A12.18,12.18,0,0,1,83.05,28a14,14,0,0,1-.73-4.75A11.44,11.44,0,0,1,85.21,15,10.19,10.19,0,0,1,93,12a17,17,0,0,1,8.92,2.6l-2.49,6a25.52,25.52,0,0,0-2.77-1.38,8.1,8.1,0,0,0-3.11-.61,3.43,3.43,0,0,0-2.81,1.2,5.07,5.07,0,0,0-1,3.28,5.61,5.61,0,0,0,1.18,3.56A17.46,17.46,0,0,0,95,30.08a17.13,17.13,0,0,1,5.51,5.42A12.57,12.57,0,0,1,102.07,41.79Z"/><path class="cls-1" d="M132,52.93h-7.51V35.22h-9.92V52.93H107V12.54h7.51V28.59h9.92v-16H132Z"/><path class="cls-1" d="M140.46,52.93V12.54h7.07V52.93Z"/><path class="cls-1" d="M174.27,52.93h-18.2V12.54h18.2V19H163.58v9.62h9.92v6.52h-9.92V46.35h10.69Z"/><path class="cls-1" d="M180.16,52.93V12.54h7.51V46.35h10.41v6.58Z"/><path class="cls-1" d="M228.58,32.35q0,10-4.08,15.29t-11.72,5.29h-9.89V12.54h10.8a12.94,12.94,0,0,1,11,5.21Q228.58,23,228.58,32.35Zm-7.71.22q0-13.53-7.46-13.54h-3V46.35h2.43a6.52,6.52,0,0,0,6.08-3.44Q220.86,39.47,220.87,32.57Z"/><path class="cls-1" d="M92.06,68.85a9.16,9.16,0,0,1-1.52,5.71,5.18,5.18,0,0,1-4.38,2h-3.7V61.45h4a4.83,4.83,0,0,1,4.1,1.95A8.85,8.85,0,0,1,92.06,68.85Zm-2.88.08c0-3.37-.92-5.05-2.78-5.05H85.27v10.2h.91a2.42,2.42,0,0,0,2.27-1.28A8,8,0,0,0,89.18,68.93Z"/><path class="cls-1" d="M101.41,76.54l-.87-3.81H96.61l-.87,3.81H92.93l3.74-15.15h3.81l3.74,15.15Zm-1.4-6.3-.8-3.5c0-.22-.16-.75-.33-1.61s-.27-1.43-.3-1.72c-.09.59-.21,1.25-.34,2s-.5,2.34-1.08,4.87Z"/><path class="cls-1" d="M109.47,76.54h-2.8V63.92h-2.89V61.45h8.58v2.47h-2.89Z"/><path class="cls-1" d="M120.39,76.54l-.87-3.81h-3.93l-.87,3.81h-2.81l3.74-15.15h3.81l3.75,15.15Zm-1.4-6.3-.8-3.5c0-.22-.16-.75-.33-1.61s-.27-1.43-.3-1.72c-.09.59-.2,1.25-.34,2s-.5,2.34-1.08,4.87Z"/><path class="cls-1" d="M138,66.1a5.18,5.18,0,0,1-1.22,3.69,4.6,4.6,0,0,1-3.5,1.28h-.7v5.47h-2.81V61.45h3.83Q138,61.45,138,66.1Zm-5.42,2.53h.53a2,2,0,0,0,1.54-.56,3.59,3.59,0,0,0,0-3.62,1.74,1.74,0,0,0-1.43-.57h-.68Z"/><path class="cls-1" d="M142.69,70.67v5.87h-2.81V61.45h3.68A4.7,4.7,0,0,1,147,62.56a4.56,4.56,0,0,1,1.11,3.37,4.22,4.22,0,0,1-1.93,4l2.9,6.62h-3l-2.39-5.87Zm0-2.42h.72a1.69,1.69,0,0,0,1.43-.56,2.7,2.7,0,0,0,.43-1.68,2.33,2.33,0,0,0-.46-1.64,1.84,1.84,0,0,0-1.42-.49h-.7Z"/><path class="cls-1" d="M160.84,69a10,10,0,0,1-1.41,5.75,4.57,4.57,0,0,1-4,2,4.62,4.62,0,0,1-4-2A10.1,10.1,0,0,1,150,69a10,10,0,0,1,1.4-5.74,4.66,4.66,0,0,1,4.05-2,4.57,4.57,0,0,1,4,2A10,10,0,0,1,160.84,69Zm-8,0a9.4,9.4,0,0,0,.65,3.93,2.05,2.05,0,0,0,1.91,1.35Q158,74.26,158,69t-2.52-5.29A2.07,2.07,0,0,0,153.51,65,9.42,9.42,0,0,0,152.86,69Z"/><path class="cls-1" d="M167.39,76.54h-2.8V63.92H161.7V61.45h8.58v2.47h-2.89Z"/><path class="cls-1" d="M178.69,76.54h-6.8V61.45h6.8v2.43h-4v3.59h3.71V69.9H174.7v4.18h4Z"/><path class="cls-1" d="M185.9,63.69A2.13,2.13,0,0,0,184,65.1,9.19,9.19,0,0,0,183.3,69q0,5.24,2.73,5.24a5,5,0,0,0,2.51-.76V76a5,5,0,0,1-2.83.74,4.46,4.46,0,0,1-3.92-2,10.13,10.13,0,0,1-1.36-5.7,10,10,0,0,1,1.41-5.73,4.49,4.49,0,0,1,3.91-2.06,5.61,5.61,0,0,1,1.59.23,6.21,6.21,0,0,1,1.62.8L188,64.54a8.08,8.08,0,0,0-1-.59A2.58,2.58,0,0,0,185.9,63.69Z"/><path class="cls-1" d="M195.31,76.54h-2.8V63.92h-2.89V61.45h8.58v2.47h-2.89Z"/><path class="cls-1" d="M200.32,76.54V61.45H203V76.54Z"/><path class="cls-1" d="M216.53,69a10,10,0,0,1-1.4,5.75,5,5,0,0,1-8,0A10,10,0,0,1,205.68,69a9.89,9.89,0,0,1,1.41-5.74,4.63,4.63,0,0,1,4-2,4.58,4.58,0,0,1,4,2A10,10,0,0,1,216.53,69Zm-8,0a9.4,9.4,0,0,0,.65,3.93,2.06,2.06,0,0,0,1.91,1.35c1.7,0,2.54-1.76,2.54-5.28s-.84-5.29-2.52-5.29A2.08,2.08,0,0,0,209.2,65,9.42,9.42,0,0,0,208.55,69Z"/><path class="cls-1" d="M229.3,76.54h-3.43l-4.66-10.93h-.14a12.7,12.7,0,0,1,.26,2.68v8.25h-2.6V61.45h3.45l4.62,10.82h.12a14.7,14.7,0,0,1-.2-2.58V61.45h2.58Z"/></g></g></svg>