<svg xmlns="http://www.w3.org/2000/svg" viewBox="0 0 230.89 86.02"><defs><style>.cls-1,.cls-2,.cls-3{fill:#0071bc;}.cls-2{font-size:56.57px;}.cls-2,.cls-3{font-family:OpenSans-CondensedBold, Open Sans Condensed;font-weight:700;}.cls-3{font-size:21.14px;}.cls-4{letter-spacing:-0.03em;}.cls-5{letter-spacing:-0.01em;}</style></defs><title>shield-s2ns</title><g id="Layer_2" data-name="Layer 2"><g id="Layer_1-2" data-name="Layer 1"><g id="svg_2" data-name="svg 2"><g id="path2"><path class="cls-1" d="M36,0h.32l1.35.69,1.79.89c.29.15,1.28.61,3,1.39S44.93,4.14,45,4.15s.5.19,1.34.56,1.48.63,1.94.8l1.95.71,1.62.57.85.28,1.3.4c.53.16,1.21.35,2,.57s1.62.42,2.4.59L59.91,9l2.16.4,2.27.41,2.25.35,1.81.28,1.74.34,1.73.34h0l-.07,3.52q-.07,3.53-.37,9.11T71,31.52c-.11,1.48-.24,2.75-.38,3.81s-.32,2.05-.51,3-.4,1.9-.63,2.86S69,43,68.86,43.72s-.39,1.51-.63,2.34-.39,1.34-.44,1.52-.12.39-.21.66-.21.6-.34,1-.33,1-.61,1.7-.5,1.34-.67,1.78-.4,1-.66,1.58-.58,1.36-1,2.22-.64,1.38-.72,1.52l-.88,1.55c-.51.89-.82,1.41-.92,1.58s-.36.58-.75,1.25-.65,1.1-.78,1.28l-.55.85c-.25.39-.45.69-.61.9l-.53.76c-.2.29-.39.56-.58.8s-.33.45-.43.62-.26.37-.46.63-.4.52-.58.78-.39.53-.61.81l-.55.71c-.15.2-.48.57-1,1.12s-1.09,1.18-1.76,1.89-1.28,1.32-1.79,1.82-.86.83-1,1-.56.47-1.18,1l-1.14,1-1,.88c-.54.46-.89.76-1.06.89l-.58.48-.91.74c-.38.32-.68.55-.88.7s-.39.28-.58.4-.52.33-1,.62l-1,.59L40,84c-.19.11-.39.23-.6.38l-.46.3a5.08,5.08,0,0,1-.63.33l-1.16.55c-.45.2-.77.34-.94.4l-.27.09L35.6,86a2.88,2.88,0,0,1-.63-.23l-1.13-.57a7.26,7.26,0,0,1-.92-.5l-.62-.41-.75-.47-1-.6c-.49-.29-.83-.49-1-.61s-.38-.25-.58-.4-.43-.33-.69-.53l-1-.84-1.11-.93c-.32-.26-.77-.65-1.38-1.18s-1-.86-1.16-1-.54-.45-1.11-1l-1-.84-.85-.84c-.51-.49-.87-.85-1.07-1.06l-1.33-1.42q-1-1.1-1.23-1.35c-.14-.16-.34-.41-.6-.73s-.48-.58-.63-.78-.31-.4-.46-.61-.31-.44-.48-.67l-.46-.61a5.18,5.18,0,0,1-.35-.49l-.4-.55c-.17-.23-.32-.44-.44-.62l-.48-.71c-.2-.29-.36-.52-.46-.68s-.27-.43-.51-.78-.38-.6-.46-.74-.27-.47-.6-1l-.65-1.07c-.11-.16-.37-.61-.79-1.36l-.94-1.67c-.21-.38-.4-.74-.56-1.07s-.38-.83-.67-1.49-.44-1-.44-1-.14-.38-.43-1.09-.52-1.27-.68-1.68-.39-1-.68-1.87S4.3,48.21,4,47.27s-.61-2.1-1-3.45-.61-2.37-.75-3S2,39.17,1.69,37.9s-.41-2.08-.46-2.48-.15-1.6-.31-3.62S.65,28.26.6,27.24.5,25.13.44,24s-.16-3-.27-5.65S0,13.86,0,12.77V11.14l.16-.09a4.31,4.31,0,0,1,.86-.2L3,10.55c.82-.13,2.07-.33,3.74-.62l3.61-.61C11,9.19,12,9,13.17,8.73s2.23-.52,3.1-.76,1.61-.46,2.24-.66L20,6.83l1-.33c.32-.11,1-.34,1.94-.71s1.87-.73,2.72-1.1A13.36,13.36,0,0,1,27,4.13c.06,0,.46-.19,1.22-.54l2.05-.94L32.1,1.8,34.32.69,35.65,0Z"/></g><g id="svg_1" data-name="svg 1"><path class="cls-1" d="M36,1.88h.3l1.3.65,1.71.85L42.1,4.7c1.61.74,2.45,1.11,2.5,1.12s.48.18,1.28.52,1.42.6,1.85.77,1.06.39,1.88.67l1.54.54.81.27L53.21,9l1.95.54c.78.21,1.54.4,2.28.56l1.44.31c.21,0,.9.18,2.06.39l2.17.38,2.15.33,1.74.27,1.66.32,1.65.32h0l-.07,3.35q-.08,3.34-.35,8.64c-.19,3.53-.33,6-.44,7.4s-.23,2.61-.37,3.62-.3,2-.49,2.85-.38,1.8-.6,2.71-.41,1.71-.58,2.4-.37,1.43-.6,2.22-.37,1.28-.41,1.44-.12.37-.21.63-.2.57-.32.94-.32.91-.58,1.62-.48,1.26-.65,1.68L64,53.4c-.25.59-.57,1.29-1,2.11s-.62,1.3-.7,1.44l-.84,1.47c-.49.84-.78,1.35-.88,1.5L60,61.11c-.37.64-.62,1-.74,1.21s-.29.44-.53.81-.43.65-.58.85l-.5.72-.56.77a7.12,7.12,0,0,0-.42.58,5.46,5.46,0,0,1-.44.6l-.55.75c-.18.24-.37.5-.58.76l-.53.67c-.15.19-.46.54-.94,1.07s-1,1.12-1.69,1.79-1.21,1.25-1.71,1.73-.82.78-1,.91l-1.13,1L47,76.24l-1,.83-1,.85-.55.45-.87.71-.84.66c-.2.14-.38.27-.56.38s-.5.31-1,.58l-.93.56c-.14.1-.31.2-.49.31a5.41,5.41,0,0,0-.58.36l-.44.29a6.74,6.74,0,0,1-.6.31l-1.11.52c-.43.19-.73.32-.9.38l-.26.09-.27-.07a3,3,0,0,1-.61-.22l-1.08-.54c-.51-.26-.8-.41-.88-.47l-.59-.4-.72-.44-.95-.57c-.47-.27-.79-.47-1-.58l-.55-.38c-.2-.14-.41-.31-.66-.51s-.58-.46-1-.79l-1.07-.88c-.3-.24-.74-.62-1.32-1.12s-.94-.81-1.11-.94l-1.06-.9c-.55-.47-.85-.74-.91-.8l-.82-.79c-.49-.47-.83-.81-1-1l-1.27-1.35c-.66-.69-1.05-1.12-1.18-1.28l-.58-.69c-.26-.31-.46-.56-.6-.74s-.29-.39-.44-.59l-.46-.63c-.17-.21-.31-.41-.44-.58s-.25-.32-.34-.46l-.38-.53c-.16-.21-.3-.41-.42-.58L13.75,64l-.44-.65-.48-.74c-.23-.34-.37-.57-.44-.7s-.27-.45-.58-1l-.63-1q-.15-.22-.75-1.29l-.9-1.59c-.2-.36-.38-.69-.53-1s-.37-.78-.65-1.41-.41-1-.41-1-.14-.36-.42-1-.49-1.2-.65-1.59-.37-1-.65-1.78-.55-1.63-.83-2.53-.58-2-.92-3.28-.58-2.24-.72-2.87-.33-1.54-.58-2.74-.39-2-.44-2.35-.14-1.52-.3-3.44-.25-3.36-.3-4.33-.1-2-.16-3.1-.15-2.88-.26-5.36S1.55,15,1.55,14V12.45l.15-.08a3.77,3.77,0,0,1,.82-.19l1.85-.29L8,11.3l3.44-.58c.7-.12,1.61-.31,2.76-.56s2.12-.49,3-.72,1.55-.43,2.15-.63l1.41-.45c.34-.1.66-.2,1-.31s.92-.33,1.85-.67,1.79-.69,2.6-1,1.24-.53,1.29-.53.45-.18,1.17-.51l2-.9,1.73-.81c.57-.26,1.28-.62,2.13-1.05l1.27-.65Z"/></g></g><text class="cls-2" transform="translate(80.11 52.93)">SHIELD</text><text class="cls-3" transform="translate(81.13 76.54)">D<tspan class="cls-4" x="11.8" y="0">AT</tspan><tspan x="30.78" y="0">A PR</tspan><tspan class="cls-5" x="67.99" y="0">O</tspan><tspan x="80.29" y="0">TECTION</tspan></text></g></g></svg>